<svg width="20" height="20" viewBox="0 0 20 20" fill="none" xmlns="http://www.w3.org/2000/svg">
<path d="M1 9.03591C1 8.44064 1.48257 7.95807 2.07784 7.95807H13.1796C13.7749 7.95807 14.2575 8.44064 14.2575 9.03591V10.2215C14.2575 10.8168 13.7749 11.2994 13.1796 11.2994H2.07784C1.48257 11.2994 1 10.8168 1 10.2215V9.03591Z" fill="white"/>
<path d="M1 4.07784C1 3.48257 1.48257 3 2.07784 3H13.1796C13.7749 3 14.2575 3.48257 14.2575 4.07784V5.26347C14.2575 5.85875 13.7749 6.34132 13.1796 6.34132H2.07784C1.48257 6.34132 1 5.85875 1 5.26347V4.07784Z" fill="white"/>
<path d="M15.6587 9.03591C15.6587 8.44064 16.1413 7.95807 16.7365 7.95807H17.9222C18.5174 7.95807 19 8.44064 19 9.03591V10.2215C19 10.8168 18.5174 11.2994 17.9222 11.2994H16.7365C16.1413 11.2994 15.6587 10.8168 15.6587 10.2215V9.03591Z" fill="white"/>
<path d="M1 13.994C1 13.3987 1.48257 12.9162 2.07784 12.9162H17.9222C18.5174 12.9162 19 13.3987 19 13.994V15.1796C19 15.7749 18.5174 16.2575 17.9222 16.2575H2.07784C1.48257 16.2575 1 15.7749 1 15.1796V13.994Z" fill="white"/>
</svg>
